<svg width="338" height="303" viewBox="0 0 338 303" fill="none" xmlns="http://www.w3.org/2000/svg">
<path d="M72.625 14.1035V59.6035H62.4688V14.1035H72.625ZM86.4688 14.1035V22.0098H48.9062V14.1035H86.4688ZM122.844 22.7598L111.094 59.6035H100.219L117.062 14.1035H123.938L122.844 22.7598ZM132.594 59.6035L120.812 22.7598L119.594 14.1035H126.562L143.469 59.6035H132.594ZM132.094 42.666V50.541H108.375V42.666H132.094ZM196.75 51.7285V59.6035H164.156V51.7285H196.75ZM196.406 19.541L168.938 59.6035H161.688V54.041L189.406 14.1035H196.406V19.541ZM193.031 14.1035V22.0098H161.625V14.1035H193.031ZM229.031 14.1035V59.6035H218.875V14.1035H229.031ZM263.438 14.1035V59.6035H253.25V14.1035H263.438ZM290.625 14.1035L272.812 36.8535L262.438 48.1035L260.594 38.6348L267.438 28.8223L278.125 14.1035H290.625ZM278.812 59.6035L266.25 38.8223L274 32.791L290.875 59.6035H278.812Z" fill="#303030"/>
<path d="M109.186 269.514H142.186C142.186 269.514 141.868 272.587 142.186 274.514C142.712 277.703 143.904 279.317 145.686 282.014C148.121 285.701 150.398 287.063 153.686 290.014C156.681 292.702 158.245 294.424 161.686 296.514C165.653 298.923 168.113 300.218 172.686 301.014C176.341 301.65 178.494 301.383 182.186 301.014C185.348 300.697 187.022 300.323 190.186 300.014C193.684 299.672 195.186 299.514 198.686 298.514C201.211 297.792 201.828 297.871 203.686 296.014C204.686 295.014 208.186 297.014 209.686 297.514C211.186 298.014 215.686 298.68 217.686 299.014C219.686 299.347 224.38 299.149 228.186 297.514C230.525 296.509 231.957 295.882 233.686 294.014C235.347 292.218 236.193 290.846 236.686 288.514C237.002 287.014 235.686 282.014 235.686 282.014C235.686 282.014 242.21 282.389 246.686 282.014C267.575 280.262 280.724 273.083 294.186 257.014C312.929 234.639 311.178 211.471 304.686 183.014C298.349 155.241 288.924 136.981 264.686 122.014C246.592 110.841 232.898 108.008 211.686 109.514C202.136 110.192 196.661 111.182 187.686 114.514C177.763 118.197 172.26 121.171 164.186 128.014C153.519 137.055 148.5 144.081 143.186 157.014C137.276 171.396 138.186 196.514 138.186 196.514C138.186 196.514 121.727 191.625 111.186 193.014C102.552 194.151 97.2606 195.437 90.1856 200.514C80.0104 207.816 74.6193 215.525 73.6856 228.014C73.5821 229.398 73.5419 230.729 73.5644 232.014L67.6856 234.514L42.6856 243.514C42.6856 243.514 40.0783 246.178 39.1856 248.514M109.186 269.514C109.186 269.514 107.229 272.97 105.686 274.514C102.186 278.014 100.355 278.643 96.6856 280.514C90.4132 283.711 83.6856 285.514 79.1856 285.514C74.6856 285.514 68.1138 284.238 63.1856 280.014C59.6856 277.014 57.6856 273.014 57.6856 273.014C57.6856 273.014 52.2367 273.821 49.1856 272.514C45.6856 271.014 43.8542 269.405 41.6856 266.014C40.4067 264.014 39.5885 260.709 39.1856 256.514C38.9056 253.598 38.14 251.25 39.1856 248.514M109.186 269.514C112.03 263.896 112.828 259.593 111.186 253.514C109.688 247.97 102.686 241.514 102.686 241.514M109.186 269.514C105.604 276.588 100.514 278.987 93.1856 282.014C85.0321 285.381 78.8734 287.297 70.6856 284.014C63.8922 281.29 60.0697 277.741 57.1856 271.014C54.2617 264.194 53.5586 258.487 57.1856 252.014C59.8987 247.172 63.4462 245.902 68.1856 243.014C72.7395 240.238 80.6856 237.514 80.6856 237.514M39.1856 248.514C40.3609 245.403 44.6856 242.014 44.6856 242.014C44.6856 242.014 52.9754 239.771 58.1856 238.014C64.3359 235.939 73.6856 232.014 73.6856 232.014V240.014L60.6856 247.514C58.5189 249.514 54.1856 255.014 54.1856 261.014C54.1856 267.014 56.8522 271.514 58.1856 273.014C58.1856 273.014 54.1682 273.543 51.6856 273.014C47.919 272.211 45.7377 270.898 43.1856 268.014C40.2778 264.728 39.8918 261.844 39.1856 257.514C38.6199 254.045 37.9432 251.802 39.1856 248.514ZM141.686 255.014V264.514C141.686 264.514 141.426 272.423 143.186 277.014C145.565 283.224 149.136 285.685 154.186 290.014C160.162 295.137 164.049 298.108 171.686 300.014C178.506 301.716 182.769 301.268 189.686 300.014C195.579 298.945 200.717 299.897 204.186 295.014C207.032 291.005 206.473 287.367 205.686 282.514C204.72 276.561 201.754 273.875 198.186 269.014C194.508 264.004 191.276 262.192 187.186 257.514C183.713 253.542 181.074 251.718 178.686 247.014C176.048 241.82 175.186 232.514 175.186 232.514M197.686 268.514C197.686 268.514 203.74 267.165 207.686 267.014C212.986 266.811 216.228 266.627 221.186 268.514C226.661 270.597 230.239 272.451 233.186 277.514C236.061 282.454 237.986 287.03 235.186 292.014C233.195 295.556 230.497 296.605 226.686 298.014C221.557 299.909 218.081 298.899 212.686 298.014C209.086 297.423 203.686 295.514 203.686 295.514M289.186 263.514C289.186 263.514 296.955 255.526 300.686 249.514C303.254 245.375 305.094 242.099 306.509 238.514M289.186 263.514L277.686 272.014C277.686 272.014 291.735 272.762 300.686 272.014C311.372 271.12 316.686 271.014 327.686 267.014C331.71 265.55 334.062 263.476 335.686 259.514C336.186 258.293 337.186 255.014 335.686 249.514C333.661 242.091 328.519 232.68 325.686 229.014C322.852 225.347 309.186 207.514 309.186 207.514C309.186 207.514 310.799 220.774 309.186 229.014C308.456 232.738 307.612 235.72 306.509 238.514M289.186 263.514C289.186 263.514 300.519 264.097 307.686 263.014C312.608 262.27 315.186 262.014 320.186 259.514C322.177 258.518 323.114 257.165 323.686 255.014C324.257 252.862 322.186 249.014 318.186 246.014C313.85 242.762 306.509 238.514 306.509 238.514M290.936 148.264L286.186 140.514L270.686 125.014L262.686 120.921M290.936 148.264L295.686 156.014C295.686 156.014 305.557 154.453 310.686 151.014C314.93 148.167 315.511 148.368 318.186 144.014C320.387 140.43 321.524 137.706 321.186 133.514C320.832 129.14 320.332 127.072 317.186 124.014C313.116 120.057 309.902 117.75 304.686 115.514C298.045 112.667 292.259 110.986 285.186 109.514C278.112 108.041 276.232 108.339 269.186 108.014C260.408 107.609 255.447 107.341 246.686 108.014C241.783 108.39 234.186 109.514 234.186 109.514L249.186 114.014L262.686 120.921M290.936 148.264C290.936 148.264 297.018 145.306 300.686 143.014C304.686 140.514 306.795 138.087 306.186 134.014C305.887 132.014 301.186 127.814 298.186 126.014C295.186 124.214 290.186 123.014 283.686 122.014C275.569 120.765 262.686 120.921 262.686 120.921M170.686 144.514C170.686 144.514 174.994 150.089 177.186 154.014C179.573 158.29 182.186 165.514 182.186 165.514M186.186 136.014C186.186 136.014 189.349 142.257 190.686 146.514C192.292 151.629 193.186 160.014 193.186 160.014M240.186 213.514C235.349 214.928 232.822 217.069 229.686 221.014C226.414 225.129 225.643 228.344 224.686 233.514C223.797 238.313 222.619 241.591 224.686 246.014C226.499 249.893 229.617 250.526 232.686 253.514C234.862 255.632 237.339 256.096 238.186 259.014C238.676 260.701 238.548 261.794 238.186 263.514C237.681 265.907 235.061 266.57 235.186 269.014C235.327 271.785 236.915 274.358 239.686 274.514C241.693 274.626 243.004 273.64 244.186 272.014C245.356 270.403 245.489 268.982 245.186 267.014C244.879 265.027 242.861 264.516 242.686 262.514C242.545 260.91 243.686 258.514 243.686 258.514C243.686 258.514 246.739 258.263 248.686 258.014C252.029 257.586 254.246 257.663 257.186 256.014C259.594 254.662 260.351 253.577 262.186 251.514C264.78 248.595 266.892 246.198 268.186 242.514C269.239 239.514 269.094 236.712 268.186 232.514C267.427 229.005 266.726 226.967 264.686 224.014C262.959 221.515 262.042 219.431 259.686 217.514C256.828 215.189 254.704 214.607 251.186 213.514C247.083 212.239 244.309 212.307 240.186 213.514ZM187.686 213.514C186.668 210.639 183.494 210.455 182.686 207.514C182.168 205.631 181.981 204.335 182.686 202.514C183.335 200.835 183.988 199.612 185.686 199.014C187.841 198.255 189.302 199.719 191.186 201.014C194.359 203.196 195.383 205.748 196.186 209.514C196.715 211.997 196.435 213.488 196.186 216.014C195.85 219.408 196.234 221.788 194.186 224.514C192.848 226.294 191.908 228.143 189.686 228.014C187.613 227.894 186.744 226.3 185.686 224.514C183.459 220.758 189.143 217.63 187.686 213.514ZM209.186 192.513C209.186 192.513 210.306 186.55 209.186 183.013C208.286 180.172 206.227 179.306 205.186 176.513C203.814 172.836 203.535 170.384 204.186 166.513C204.91 162.208 206.823 160.185 209.186 156.513C212.257 151.74 213.466 147.743 218.686 145.513C223.354 143.519 226.718 144.464 231.686 145.513C237.411 146.723 240.896 148.034 245.186 152.013C249.483 155.999 251.857 159.211 252.686 165.013C253.686 172.014 253.267 175.324 250.686 181.014C248.346 186.17 247.143 188.277 242.186 191.013C237.912 193.373 235.062 194.28 230.186 194.513C225.632 194.731 222.971 194.067 218.686 192.513C217.288 192.006 215.186 191.013 215.186 191.013C215.186 191.013 213.912 193.675 213.686 195.513C213.21 199.375 216.218 201.151 216.686 205.013C216.991 207.533 217.793 209.23 216.686 211.513C215.594 213.763 214.167 215.206 211.686 215.513C208.728 215.879 206.717 214.07 205.186 211.513C203.48 208.666 203.934 206.088 205.186 203.013C206.129 200.697 208.421 200.394 209.186 198.013C209.842 195.968 209.186 192.513 209.186 192.513ZM221.686 174.513C223.099 174.359 223.963 174.788 225.186 175.513C226.734 176.431 227.688 177.283 228.186 179.013C228.736 180.927 228.788 182.831 227.186 184.013C225.771 185.056 224.369 184.516 222.686 184.013C220.552 183.376 218.918 182.615 218.186 180.513C217.604 178.843 217.56 177.377 218.686 176.013C219.519 175.003 220.383 174.655 221.686 174.513ZM218.686 173.013C219.986 173.172 220.716 172.394 221.686 171.513C222.978 170.338 223.415 169.238 223.686 167.513C223.994 165.546 224.474 163.39 222.686 162.513C220.959 161.666 219.545 163.153 218.186 164.513C216.826 165.873 216.029 167.096 216.186 169.013C216.336 170.849 216.857 172.789 218.686 173.013ZM232.186 159.514C235.46 158.542 237.686 162.012 239.686 164.513C241.686 167.013 241.88 168.293 242.686 171.513C243.061 173.013 242.015 177.014 241.186 179.013C240.149 181.514 239.186 182.514 236.686 184.013C234.341 185.419 230.762 187.526 229.686 185.013C229.224 183.936 229.31 183.123 229.686 182.013C230.086 180.829 231.288 180.698 231.686 179.513C232.186 178.02 231.871 176.93 231.186 175.513C229.931 172.917 227.621 174.013 226.186 171.513C224.276 168.186 228.186 162.513 228.186 162.513C228.186 162.513 230.068 160.142 232.186 159.514ZM235.374 236.642C236.702 236.499 237.514 236.899 238.663 237.574C240.119 238.429 241.015 239.223 241.483 240.834C242 242.617 242.049 244.391 240.543 245.492C239.214 246.464 237.896 245.96 236.313 245.492C234.308 244.899 232.773 244.19 232.084 242.232C231.537 240.676 231.496 239.31 232.554 238.04C233.337 237.098 234.15 236.774 235.374 236.642ZM232.554 235.245C233.776 235.393 234.463 234.668 235.374 233.847C236.588 232.753 236.999 231.728 237.253 230.121C237.543 228.289 237.994 226.28 236.313 225.463C234.69 224.675 233.362 226.06 232.084 227.326C230.806 228.593 230.057 229.733 230.204 231.519C230.345 233.229 230.835 235.036 232.554 235.245ZM245.243 222.67C248.321 221.764 250.412 224.997 252.292 227.326C254.172 229.655 254.355 230.847 255.112 233.847C255.464 235.245 254.481 238.972 253.702 240.834C252.727 243.164 251.822 244.095 249.472 245.492C247.269 246.802 243.905 248.764 242.893 246.424C242.459 245.421 242.54 244.663 242.893 243.629C243.269 242.526 244.399 242.404 244.773 241.3C245.243 239.91 244.947 238.894 244.303 237.574C243.123 235.156 240.952 236.177 239.603 233.847C237.808 230.748 241.483 225.463 241.483 225.463C241.483 225.463 243.252 223.255 245.243 222.67ZM81.1856 208.514C81.1856 208.514 74.6575 215.016 69.6856 218.014C62.7483 222.196 57.6898 222.269 49.6856 223.514C38.8808 225.194 32.1856 224.514 21.6856 225.514C14.7176 226.177 11.1856 225.514 5.18558 230.514C2.05339 233.124 0.562396 236.774 2.18558 240.514C3.23141 242.924 7.18558 245.014 7.18558 245.014H31.1856C31.1856 245.014 43.8057 242.769 51.6856 240.514C60.4745 237.998 73.6856 232.514 73.6856 232.514C73.6856 232.514 72.8319 225.724 73.6856 221.514C74.8657 215.693 81.1856 208.514 81.1856 208.514Z" stroke="#171010" stroke-width="2"/>
</svg>
